<svg version="1.0" xmlns="http://www.w3.org/2000/svg" viewBox="0 0 171 126"><g fill="#4CB2FF" stroke="#4CB2FF" stroke-width="3.3"><path d="m46 30.9-4.5.6v87l60 .3 60 .2-.1-43c-.1-29.7.2-43 .9-43s.6-.5-.1-1.3c-1-.9-13.8-1.2-56.5-1.3-30.4-.1-57.2.1-59.7.5zm61.6 4.9c.2 10.2.9 12.9 1.7 7.2.6-3.8 2.7-3.7 2.7.2v3.3l1.9-2.5c1.1-1.3 1.9-2.7 1.9-3-.2-2.6.3-3.2 1.7-2 1 .8 1.2 1.7.6 2.4-.5.6-1.2 2.6-1.6 4.3-.6 3-.4 3.4 2.2 4.4 7.3 2.7 11.2 9.9 11.3 20.6 0 6.7.9 8.9 2.5 6.3 1.1-1.8 5.8-1.1 8.2 1.2 4.9 4.6 1.7 15.8-4.5 15.8-3.8 0-7.2-3.6-7.2-7.8v-3.5l-2.9 4c-4.1 5.7-9.2 7.5-20.1 7.1l-8.5-.3L97 70c-.4-15.4-1-24.5-1.8-26.3-1.6-3.7-1.5-4.7.4-4.7.9 0 1.4.6 1.1 1.3-.2.7.3 2.3 1.3 3.5l1.9 2.3.3-2.6c.3-2.4 2.2-3.6 2.4-1.5.1.5.3 1.8.4 2.7.2 1.8 2.2-5.9 2.2-8.7 0-4.8 2.3-4.9 2.4-.2zM58 71.9l.5 9.4 3.9-5.9c2.1-3.2 5.2-7.6 6.8-9.7 2.9-3.6 3.1-3.7 9.9-3.7 4.5 0 6.9.4 6.9 1.1 0 .7-3.1 5.6-7 11-3.8 5.4-7 10.2-7 10.7 0 .6 2.4 5.9 5.4 11.8l5.5 10.9V89.4l.1-18.2 3.4-.6C93 69.3 93 69.3 93 88.5c0 9.5-.3 18-.6 18.9-.4 1.1-1.9 1.6-4.6 1.6-3.4 0-3.9.3-3.3 1.7 1.8 4.4 1.3 4.8-5.8 5.1l-6.7.3-4.7-9.6c-2.5-5.2-4.9-9.5-5.3-9.5-2 0-3.9 5.3-4.2 11.6l-.3 6.9h-13L44.2 90c-.1-14 0-26.1.3-26.8.3-.9 2.3-1.2 6.7-1l6.3.3.5 9.4zm90.8 16.7c1.5.5 2.2 1.4 2.2 3.3.1 2.5.1 2.5 1.5-.7 1.1-2.6 2-3.3 3.7-3 2.2.3 2.3.8 2.6 8.9l.3 8.6-7.6.1-7.5.2v-8.3c0-9.9.2-10.3 4.8-9.1zm-45.4 13.1 1.5 2.8.1-2.8c0-2.4.4-2.8 2.3-2.5 2.1.3 2.2.7 2.2 8.8 0 7.2-.3 8.5-1.7 8.8-1.1.2-2.5-.9-3.7-2.9l-1.9-3.2-.4 2.9c-.2 2.1-.8 2.9-2.3 2.9-1.8 0-2-.8-2.3-7.4-.2-4.1-.1-8 .2-8.8.9-2.3 4.5-1.5 6 1.4zm19.6-.7c1.6 1.6 2 3.3 2 8.5 0 3.6-.3 6.5-.7 6.6-.5 0-2.7.3-4.9.5-3.6.4-4.5.1-6.3-2.2-6.4-8.1 2.8-20.5 9.9-13.4z"/><path d="M110 71.5c0 7.8.2 8.5 1.9 8.5 2.9 0 5.1-3.8 5.1-8.8 0-5.6-1.4-8.2-4.5-8.2-2.5 0-2.5.1-2.5 8.5z"/></g><g fill="#E5B2FF" stroke="#E5B2FF" stroke-width="3.3"><path d="M105 42.9c0 3.6-1.5 4.8-2.9 2.4-1-1.7-1-1.7-1.1-.1 0 2.4-.8 2.3-3.2-.5-1.7-2-1.9-2-1.1-.2.4 1.1.9 12.5 1.1 25.2l.3 23.3h9c11.9 0 16-2 19.5-9.3 1.8-4 2.4-6.9 2.4-12.5 0-11.1-3.6-17.9-10.7-20.3-3.3-1.1-3.4-1.3-2.8-4.6l.6-3.6-2.5 2.9-2.5 2.9-.1-2.5c-.1-2.2-.2-2.3-1.1-.7-1.3 2.2-2.9 1.3-2.9-1.8 0-1.3-.4-2.7-1-3-.6-.4-1 .6-1 2.4zM119.5 57c5.7 3.5 7.9 16.4 4 24-2.7 5.2-5.2 6.5-13.6 6.9l-7.9.3V55h7.1c5.4 0 8 .5 10.4 2zM45 88.5V114h12v-6.3c0-5.5.4-6.7 2.9-9.7l2.9-3.5 1 2.6c.6 1.5 2.6 6 4.6 10l3.5 7.4 6.1-.2c3.4-.1 6.3-.3 6.5-.5.2-.2-2.8-6.6-6.6-14.2S71 85.3 71 84.8s3.2-5.3 7-10.7c3.9-5.4 7-10 7-10.2 0-.3-2.9-.6-6.4-.7l-6.4-.3-7.4 10.5-7.3 10.5-.3-10.5-.3-10.4H45v25.5z"/><path d="M83.9 75.7c0 2.1-.2 7.6-.3 12.3-.2 4.7-.1 11.1.2 14.2.4 4.8.8 5.8 2.3 5.8 1.7 0 1.9-.9 1.9-8.1 0-6.9.3-8.2 1.8-8.5 1.5-.4 1.7-1.8 1.7-10V72h-3.7c-3.7 0-3.8.1-3.9 3.7z"/></g><path d="M162.4 74.5c0 15.4.2 21.6.3 13.7.2-7.9.2-20.5 0-28-.1-7.5-.3-1.1-.3 14.3z" fill="#197FFF" stroke="#197FFF" stroke-width="3.3"/><path d="M103.3 55.6c-1 .4-1.3 4.7-1.3 16.5V88h6.3c11.8 0 16.7-4.9 16.7-16.8 0-11.1-3.5-15.1-13.6-15.7-3.8-.3-7.5-.2-8.1.1zm13.7 9.1c4.4 5.5.5 17.3-5.6 17.3-1.2 0-2.5-.7-2.8-1.6-.8-2.1-.8-16.9.1-17.7 1.7-1.7 6.3-.6 8.3 2zm15.3 14c-1.5.6-2.7 6.5-1.9 9.5.3 1.3 1.5 2.9 2.7 3.6 2.9 1.8 7.9-.1 8-3.2.1-1.1.3-3.3.5-4.8.1-1.5-.4-3.5-1.2-4.3-1.5-1.4-5.6-1.9-8.1-.8zm6.4 3.5c1.5 3.6.2 7.3-2.7 7.3-1.9 0-2.6-.7-3.4-3.2-1.5-5.5 3.9-9.1 6.1-4.1zm7.4 15c.1 4.6.3 7.4.6 6.3 1-4.8 1.5-5 2.9-1.5 1.5 3.3 1.6 3.4 3 1.6.8-1.1 1.4-2.6 1.4-3.3 0-2.6 2-1.2 2.2 1.4 0 1.6.4.5.7-2.2 1.2-10-1.4-14.4-3.3-5.6-.8 3.9-3 5.2-3.2 2 0-.8-.6-2.6-1.2-4.2-2.1-5-3.2-3-3.1 5.5zm-47 11c.1 5 .4 6.3.8 4 .8-4.3 2.2-4.5 4.1-.5 2.6 5.6 4 4.1 3.9-4 0-5.3-.3-6.5-.9-4.5-1.5 5-2.2 5.3-3.9 1.8-2.9-6-4.1-5-4 3.2zm14.5-5.7c-.8 2.1-.8 7.3 0 10.2.5 1.9 1.3 2.3 5 2.3 4.4 0 4.4 0 4.4-3.5 0-3.2-.3-3.5-2.7-3.5-2.4.1-2.5.2-1 1.1 1.3.8 1.5 1.4.7 2.9-.9 1.7-1.4 1.8-3 .8-2.4-1.6-3.1-4.4-1.8-7.4 1.3-2.8 3.4-3.1 6.1-.7 1.8 1.7 1.9 1.7 1.6-.7-.3-2.1-1-2.5-4.5-2.8-3.1-.2-4.3.1-4.8 1.3z" stroke-width="3.3" fill="#E5CCCC" stroke="#E5CCCC"/><path d="M91.8 119.7c6.8.2 17.6.2 24 0 6.4-.1.9-.3-12.3-.3-13.2 0-18.5.2-11.7.3z" fill="#1999FF" stroke="#1999FF" stroke-width="3.3"/></svg>